<svg xmlns="http://www.w3.org/2000/svg" width="1200" height="340" viewBox="0 0 1200 340" role="img" aria-label="Dody Dueñas Remache — Junior Data Analyst and Data Scientist. Python, SQL, Power BI.">
<defs><linearGradient id="bg"><stop stop-color="#11192c"/><stop offset="1" stop-color="#17132a"/></linearGradient><linearGradient id="accent"><stop stop-color="#75e6ce"/><stop offset=".6" stop-color="#88b7ff"/><stop offset="1" stop-color="#c99bff"/></linearGradient></defs>
<rect width="1200" height="340" rx="22" fill="#080b12"/><rect x="1" y="1" width="1198" height="338" rx="22" fill="url(#bg)" stroke="#30405b"/>
<g fill="none" stroke="#334663" opacity=".45"><path d="M850 45v245m70-245v245m70-245v245m70-245v245m70-245v245M830 85h310M830 150h310M830 215h310M830 280h310"/></g>
<g fill="url(#accent)"><rect x="854" y="218" width="35" height="62" rx="5"/><rect x="912" y="178" width="35" height="102" rx="5"/><rect x="970" y="195" width="35" height="85" rx="5"/><rect x="1028" y="126" width="35" height="154" rx="5"/><rect x="1086" y="75" width="35" height="205" rx="5"/></g>
<path d="M50 62h50" stroke="url(#accent)" stroke-width="5" stroke-linecap="round"/>
<g font-family="Segoe UI,Arial,sans-serif"><text x="50" y="116" fill="#edf2ff" font-size="45" font-weight="700">Dody Dueñas Remache</text><text x="50" y="164" fill="#75e6ce" font-size="24">Junior Data Analyst · Data Scientist</text><text x="50" y="210" fill="#b3c1d8" font-size="19">Python · SQL · Power BI · Machine Learning</text><text x="50" y="264" fill="#b3c1d8" font-size="17">Guayaquil, Ecuador · Proyectos / Projects</text><text x="50" y="294" fill="#b3c1d8" font-size="16">Henry · No Country · Personal</text></g></svg>
